# xmcd
#
# Track frame offsets: 
#        150
#        11755
#        23841
#        35413
#        46265
#        57097
#        68964
#        78833
#        92359
#        104414
#        117363
#        129231
#        145322
#        160534
#        171536
#        182766
#        193801
#        204506
#
# Disc length: 2879 seconds
#
# Revision: 0
# Processed by: cddbd v1.5.2PL0 Copyright (c) Steve Scherf et al.
# Submitted via: ExactAudioCopyFreeDBPlugin 1.0
#
DISCID=ef0b3d12
DTITLE=Bobby ''Blue'' Bland - The Duke Years (1952-1962) [CD3]
DYEAR=2014
DGENRE=Blues
TTITLE0=Turn On Your Love Light
TTITLE1=I Pity The Fool
TTITLE2=I'm Not Ashamed
TTITLE3=Don't Cry No More
TTITLE4=St. James Infirmary
TTITLE5=That's The Way Love Is
TTITLE6=Someday
TTITLE7=No Blow, No Show
TTITLE8=Army Blues
TTITLE9=You Or None
TTITLE10=I Can't Put You Down Baby
TTITLE11=Blues In The Night
TTITLE12=Jelly, Jelly, Jelly
TTITLE13=Loan A Helping Hand
TTITLE14=Twistin' Up The Road
TTITLE15=36-22-36
TTITLE16=You're Worth It All
TTITLE17=Sometime Tomorrow
EXTD=
EXTT0=
EXTT1=
EXTT2=
EXTT3=
EXTT4=
EXTT5=
EXTT6=
EXTT7=
EXTT8=
EXTT9=
EXTT10=
EXTT11=
EXTT12=
EXTT13=
EXTT14=
EXTT15=
EXTT16=
EXTT17=
PLAYORDER=
